<svg width="64" height="64" viewBox="0 0 64 64" fill="none" xmlns="http://www.w3.org/2000/svg">
  <defs>
    <linearGradient id="vpGradient" x1="6" y1="6" x2="58" y2="58" gradientUnits="userSpaceOnUse">
      <stop stop-color="#CFF9F1" />
      <stop offset="1" stop-color="#E2FBD7" />
    </linearGradient>
  </defs>
  <circle cx="32" cy="32" r="30" fill="url(#vpGradient)" />
  <path
    d="M22 35.5C24.5 28 30.5 22.5 36.5 21.5C38 21.3 39.6 21.6 41 22.5C42.6 23.6 43.1 25.2 42.6 26.8C41.7 29.8 38.5 32.5 35 32.8C30.8 33.2 27.4 31.5 25.6 29.1C25.1 28.4 24.2 28.2 23.4 28.6C22.6 29 22.1 29.9 22.2 30.8C22.6 34.7 24.9 38.2 28.6 40.2C32.1 42.2 36.7 42.6 40.8 41.3C41.9 40.9 42.5 39.7 42 38.7C41.6 37.6 40.5 37 39.4 37.4C36.4 38.3 33.1 38 30.5 36.5C28.4 35.4 27 33.7 26.4 31.8C28.9 33.5 32.4 34.4 36 34C41.1 33.4 45.6 30 47 25.7C47.9 22.8 47 19.7 44.6 17.8C42.5 16 39.7 15.3 36.3 15.8C28.9 16.9 21.8 23.3 19.1 32.4C18.8 33.6 19.5 34.8 20.7 35.1C21.1 35.2 21.6 35.2 22 35.5Z"
    fill="#2C8A8A"
  />
</svg>
